#!OML:ASF X:\für Bonn\!DataBase\2005_08_10_Bjorn_Final\c3d\bjorn.ASF
:FULLY-SPECIFIED
:DEGREES
79
root 0.792933 18.7664 1.55858 -183.051 3.81785 180.178
lowerback -25.2105 -0.171971 -0.769889
upperback 5.33309 -0.339157 2.03528
thorax 20.0648 -0.389272 2.6059
lowerneck 19.5689 -4.815 3.13728
upperneck 26.7399 -0.172775 3.27402
head 5.22594 2.72053 0.758854
rclavicle -1.9133e-015 -4.37326e-015
rhumerus -1364.02 -32.6648 1409.19
rradius 19.5551
rwrist 35.3317
rhand -5.4851 -1.49183
rfingers 7.12502
rthumb 20.3273 -30.448
lclavicle -1.9133e-015 -4.37326e-015
lhumerus -1537.49 141.522 -1582.2
lradius 23.6323
lwrist -36.2141
lhand -22.0367 2.32163
lfingers 7.12502
lthumb 4.37331 32.2565
rfemur -1.30276 -9.23834 13.0384
rtibia 31.8712
rfoot -23.0599 14.1683
rtoes -14.1928
lfemur 3.67906 6.44291 -14.6207
ltibia 28.0686
lfoot -21.5018 -0.163818
ltoes -12.1794
80
root 0.794065 18.7493 1.51037 -183.127 3.87887 180.248
lowerback -25.5416 -0.195136 -0.752871
upperback 5.41408 -0.391012 2.11432
thorax 20.3592 -0.418819 2.66973
lowerneck 20.0951 -4.89896 3.27038
upperneck 26.5726 -0.157095 3.13793
head 5.10297 2.74466 0.688446
rclavicle -1.49089e-015 -2.54444e-014
rhumerus -1363.37 -34.8556 1408.42
rradius 19.4764
rwrist 35.3989
rhand -5.45141 -1.66962
rfingers 7.12502
rthumb 20.3596 -30.6224
lclavicle -1.49089e-015 -2.54444e-014
lhumerus -1536.84 139.365 -1580.93
lradius 24.2427
lwrist -36.226
lhand -22.9069 1.84065
lfingers 7.12502
lthumb 3.53301 31.7911
rfemur -1.08827 -9.17244 13.0692
rtibia 31.9431
rfoot -23.2728 14.2064
rtoes -14.2643
lfemur 3.84582 6.50218 -14.5012
ltibia 28.2667
lfoot -21.7122 -0.242976
ltoes -12.1069
81
root 0.796121 18.7328 1.46711 -183.178 3.90254 180.339
lowerback -25.8346 -0.217716 -0.742242
upperback 5.47754 -0.439799 2.19225
thorax 20.6101 -0.447095 2.7365
lowerneck 20.6963 -5.0016 3.42906
upperneck 26.3486 -0.152736 2.98665
head 4.95268 2.76391 0.607933
rclavicle 2.08475e-014 -3.18055e-015
rhumerus -1362.92 -37.0386 1407.84
rradius 19.4832
rwrist 35.2567
rhand -5.28752 -1.85892
rfingers 7.12502
rthumb 20.5171 -30.7948
lclavicle 2.08475e-014 -3.18055e-015
lhumerus -1536.22 137.257 -1579.65
lradius 24.9298
lwrist -36.2125
lhand -23.8553 1.33866
lfingers 7.12502
lthumb 2.61707 31.3023
rfemur -0.902053 -9.17861 13.1221
rtibia 32.0092
rfoot -23.4467 14.3089
rtoes -14.2167
lfemur 3.96178 6.58209 -14.3351
ltibia 28.4776
lfoot -21.8613 -0.354222
ltoes -12.2497
82
root 0.796469 18.7171 1.42808 -183.228 3.91532 180.425
lowerback -26.0744 -0.234288 -0.705394
upperback 5.53674 -0.485479 2.24624
thorax 20.8253 -0.468497 2.76187
lowerneck 21.2897 -5.08446 3.54659
upperneck 26.0963 -0.150129 2.92021
head 4.79527 2.77762 0.56148
rclavicle -2.5842e-015 6.36111e-015
rhumerus -1362.22 -39.2371 1406.87
rradius 19.4682
rwrist 35.4577
rhand -4.99953 -2.06438
rfingers 7.12502
rthumb 20.7939 -30.9702
lclavicle -2.5842e-015 6.36111e-015
lhumerus -1535.59 135.135 -1578.42
lradius 25.5989
lwrist -36.0907
lhand -24.853 0.762246
lfingers 7.12502
lthumb 1.65351 30.7356
rfemur -0.735109 -9.19529 13.1701
rtibia 32.083
rfoot -23.6497 14.3386
rtoes -14.347
lfemur 4.05404 6.68127 -14.1745
ltibia 28.6959
lfoot -22.0092 -0.547964
ltoes -12.2419
83
root 0.797258 18.702 1.39239 -183.28 3.91428 180.515
lowerback -26.2806 -0.255575 -0.695007
upperback 5.61743 -0.532537 2.32156
thorax 21.0515 -0.495777 2.82651
lowerneck 21.7598 -5.17357 3.64962
upperneck 25.8782 -0.17423 2.80667
head 4.66534 2.77175 0.503518
rclavicle -7.57867e-015 1.66979e-014
rhumerus -1361.66 -41.4379 1406.07
rradius 19.5297
rwrist 35.5914
rhand -4.80709 -2.31004
rfingers 7.12502
rthumb 20.9788 -31.1955
lclavicle -7.57867e-015 1.66979e-014
lhumerus -1535.05 132.961 -1577.3
lradius 26.2971
lwrist -35.8798
lhand -25.7441 0.27709
lfingers 7.12502
lthumb 0.792864 30.2554
rfemur -0.572225 -9.16465 13.2394
rtibia 32.151
rfoot -23.8212 14.3698
rtoes -14.3197
lfemur 4.12858 6.70507 -14.0222
ltibia 28.9288
lfoot -22.1066 -0.689707
ltoes -12.1851
84
root 0.796532 18.6867 1.35923 -183.344 3.91492 180.577
lowerback -26.4293 -0.277855 -0.687766
upperback 5.66496 -0.576058 2.37757
thorax 21.2018 -0.519266 2.87087
lowerneck 22.3538 -5.25451 3.70221
upperneck 25.6204 -0.185552 2.7647
head 4.50829 2.77279 0.476611
rclavicle -1.66482e-015 -1.11319e-014
rhumerus -1361.49 -43.5206 1405.69
rradius 19.6858
rwrist 35.2408
rhand -4.55207 -2.53638
rfingers 7.12502
rthumb 21.2237 -31.3945
lclavicle -1.66482e-015 -1.11319e-014
lhumerus -1534.72 130.802 -1576.38
lradius 27.0504
lwrist -35.8259
lhand -26.536 -0.0854049
lfingers 7.12502
lthumb 0.0280762 29.8943
rfemur -0.414254 -9.19302 13.2599
rtibia 32.2302
rfoot -23.9978 14.4139
rtoes -14.4858
lfemur 4.20528 6.80189 -13.8801
ltibia 29.1578
lfoot -22.1992 -0.893495
ltoes -12.2439
85
root 0.796672 18.673 1.32615 -183.38 3.95156 180.665
lowerback -26.6148 -0.268727 -0.661062
upperback 5.7264 -0.585835 2.44297
thorax 21.3894 -0.527743 2.93051
lowerneck 22.9199 -5.34255 3.77473
upperneck 25.3536 -0.206225 2.71036
head 4.35273 2.76896 0.442667
rclavicle -1.53561e-014 4.77083e-015
rhumerus -1361.95 -45.5786 1406.06
rradius 19.9679
rwrist 33.6411
rhand -4.30342 -2.81045
rfingers 7.12502
rthumb 21.4626 -31.6415
lclavicle -1.53561e-014 4.77083e-015
lhumerus -1534.36 128.629 -1575.44
lradius 27.7442
lwrist -35.8152
lhand -27.3487 -0.315952
lfingers 7.12502
lthumb -0.756878 29.6624
rfemur -0.289162 -9.10224 13.3402
rtibia 32.3039
rfoot -24.1803 14.3783
rtoes -14.5703
lfemur 4.25476 6.92197 -13.7116
ltibia 29.397
lfoot -22.2791 -1.06757
ltoes -12.5661
86
root 0.795707 18.6579 1.29651 -183.425 3.96334 180.712
lowerback -26.7263 -0.258963 -0.648349
upperback 5.76065 -0.582949 2.47086
thorax 21.498 -0.528796 2.95885
lowerneck 23.5103 -5.43369 3.83748
upperneck 25.1037 -0.223433 2.68645
head 4.20111 2.77133 0.420987
rclavicle -4.12478e-015 -2.38542e-014
rhumerus -1362.52 -47.5871 1406.42
rradius 20.2863
rwrist 31.9308
rhand -4.06541 -3.08525
rfingers 7.12502
rthumb 21.6911 -31.8901
lclavicle -4.12478e-015 -2.38542e-014
lhumerus -1534.31 126.461 -1574.82
lradius 28.4061
lwrist -36.5104
lhand -28.0787 -0.390433
lfingers 7.12502
lthumb -1.46191 29.5843
rfemur -0.168301 -9.00802 13.3849
rtibia 32.3818
rfoot -24.382 14.2912
rtoes -14.6937
lfemur 4.30165 6.98842 -13.5987
ltibia 29.6334
lfoot -22.3508 -1.27259
ltoes -12.5334
87
root 0.793928 18.6437 1.26812 -183.475 3.978 180.798
lowerback -26.8258 -0.251189 -0.604841
upperback 5.79347 -0.597157 2.52122
thorax 21.5995 -0.53429 2.98846
lowerneck 24.1429 -5.52663 3.87134
upperneck 24.8418 -0.239441 2.63855
head 4.04188 2.77164 0.396297
rclavicle 9.44227e-016 1.51076e-014
rhumerus -1363 -49.5588 1406.57
rradius 20.6044
rwrist 30.1773
rhand -3.95826 -3.31451
rfingers 7.12502
rthumb 21.794 -32.1074
lclavicle 9.44227e-016 1.51076e-014
lhumerus -1534.8 124.242 -1574.69
lradius 29.0876
lwrist -37.2904
lhand -28.5606 -0.404914
lfingers 7.12502
lthumb -1.92734 29.5661
rfemur -0.0448887 -8.95919 13.4513
rtibia 32.4598
rfoot -24.5322 14.308
rtoes -14.6901
lfemur 4.34779 7.05337 -13.4434
ltibia 29.8659
lfoot -22.414 -1.43785
ltoes -12.7087
